# xmcd
#
# Track frame offsets:
#	150
#	15568
#	33242
#	47882
#	60291
#	79333
#	100111
#	113938
#	133481
#	151609
#	162933
#	177088
#
# Disc length: 2554 seconds
#
# Revision: 0
# Processed by: cddbd v1.4PL0 Copyright (c) Steve Scherf et al.
# Submitted via: audiograbber 1.82.01
#
DISCID=8f09f80c
DTITLE=Los Llaneros de la Frontera - Sin Fronteras
DYEAR=2000
DGENRE=rancheras
TTITLE0=en mexico
TTITLE1=nadie es eterno
TTITLE2=un golpe mas
TTITLE3=en lontananza
TTITLE4=despedida de un angel
TTITLE5=micaela
TTITLE6=el mendigo del santuario
TTITLE7=el chacal de nahueltoro
TTITLE8=la reina del espacio
TTITLE9=madrecita linda
TTITLE10=la colegiala
TTITLE11=mendigarte no
EXTD=
EXTT0=
EXTT1=
EXTT2=
EXTT3=
EXTT4=
EXTT5=
EXTT6=
EXTT7=
EXTT8=
EXTT9=
EXTT10=
EXTT11=
PLAYORDER=
